# xmcd
#
# Track frame offsets:
#	150
#	21265
#	48077
#	66605
#	91055
#	113765
#	137215
#	157217
#	174822
#	199047
#
# Disc length: 2958 seconds
#
# Revision: 1
# Processed by: cddbd v1.5.1PL0 Copyright (c) Steve Scherf et al.
# Submitted via: CDex 1.50Beta5
#
DISCID=840b8c0a
DTITLE=中山美穂 - YOUR SELECTION1
DYEAR=2001
DGENRE=Pop
TTITLE0=中山美穂/You’re My Only Shinin’ Star
TTITLE1=中山美穂/遠い街のどこかで…
TTITLE2=中山美穂&WANDS/世界中の誰よりきっと
TTITLE3=中山美穂/あなたになら…
TTITLE4=中山美穂/ただ泣きたくなるの
TTITLE5=中山美穂/Hurt to Heart〜痛みの行方〜
TTITLE6=中山美穂 with MAYO/未来へのプレゼント
TTITLE7=中山美穂/マーチカラー
TTITLE8=中山美穂/Love Clover
TTITLE9=中山美穂/Place Under The Sun,A
EXTD=
EXTT0=
EXTT1=
EXTT2=
EXTT3=
EXTT4=
EXTT5=
EXTT6=
EXTT7=
EXTT8=
EXTT9=
PLAYORDER=
